<svg width="898" height="893" viewBox="0 0 898 893" fill="none" xmlns="http://www.w3.org/2000/svg">
<g opacity="0.2">
<path d="M0.0408357 0.297067C93.4791 -0.278314 93.4791 -0.278313 124.394 2.72309C126.809 2.95739 129.223 3.18193 131.638 3.40605C155.229 5.62962 178.545 9.08459 201.82 13.5455C202.953 13.7604 204.085 13.9753 205.252 14.1967C257.476 24.2896 310.157 43.3727 352.063 77.138C352.565 77.5424 353.068 77.9467 353.585 78.3633C398.927 115.324 423.086 166.872 429.587 224.875C433.887 268.374 428.454 313.01 418.449 355.355C415.829 355.355 415.829 355.355 413.686 353.285C412.864 352.363 412.05 351.433 411.243 350.498C410.599 349.769 410.599 349.769 409.942 349.025C408.694 347.609 407.456 346.184 406.22 344.757C405.655 344.108 405.09 343.459 404.507 342.79C403.543 341.677 402.58 340.561 401.621 339.443C399.196 336.638 396.723 333.877 394.254 331.111C392.974 329.677 391.698 328.24 390.426 326.799C382.24 317.54 373.901 308.438 365.154 299.719C362.522 297.083 360.096 294.363 357.744 291.475C356.374 289.932 354.929 288.643 353.36 287.309C347.912 282.544 342.946 277.284 337.893 272.101C333.929 268.058 329.937 264.132 325.66 260.43C323.393 258.46 321.221 256.396 319.034 254.336C315.013 250.58 310.871 247.034 306.603 243.565C304.169 241.542 301.799 239.463 299.436 237.357C292.496 231.181 285.298 225.446 277.9 219.844C276.139 218.508 274.386 217.162 272.636 215.812C252.109 200.028 230.668 185.745 207.935 173.41C210.53 176.822 213.359 179.895 216.379 182.918C216.864 183.407 217.349 183.896 217.848 184.4C218.896 185.455 219.945 186.51 220.994 187.564C222.66 189.238 224.324 190.914 225.986 192.591C230.118 196.757 234.254 200.918 238.39 205.079C241.886 208.596 245.38 212.115 248.872 215.636C250.501 217.278 252.133 218.917 253.765 220.556C258.318 225.14 262.833 229.706 266.977 234.679C269.273 237.368 271.812 239.818 274.321 242.302C278.115 246.093 281.787 249.911 285.237 254.029C286.63 255.643 288.097 257.141 289.608 258.642C291.611 260.636 293.507 262.669 295.34 264.824C298.428 268.45 301.656 271.934 304.894 275.423C309.056 279.916 313.171 284.428 317.123 289.113C317.887 290.015 318.651 290.917 319.416 291.818C320.74 293.38 322.064 294.941 323.386 296.505C326.239 299.876 329.109 303.231 331.991 306.577C337.044 312.447 341.996 318.38 346.822 324.442C347.616 325.427 348.41 326.411 349.204 327.396C361.767 343.039 373.463 359.283 383.564 376.663C383.981 377.375 384.399 378.088 384.829 378.821C385.214 379.496 385.6 380.17 385.997 380.866C386.339 381.461 386.681 382.057 387.034 382.67C388.042 384.86 388.578 386.495 388.75 388.918C387.782 391.535 387.782 391.535 386.283 394.418C386.019 394.937 385.755 395.457 385.482 395.992C384.636 397.652 383.773 399.302 382.909 400.952C381.788 403.113 380.675 405.277 379.568 407.445C379.299 407.97 379.029 408.495 378.751 409.035C376.695 413.109 375.15 417.233 373.823 421.599C373.56 422.181 373.298 422.764 373.027 423.364C370.66 424.162 369.043 424.407 366.59 424.52C365.444 424.575 365.444 424.575 364.275 424.63C363.451 424.664 362.627 424.698 361.778 424.733C360.919 424.77 360.06 424.807 359.175 424.845C350.415 425.2 341.66 425.291 332.894 425.31C332.063 425.312 331.232 425.315 330.377 425.317C325.966 425.331 321.554 425.339 317.143 425.343C313.597 425.346 310.051 425.359 306.505 425.379C287.369 425.486 268.328 425.266 249.232 423.919C248.459 423.865 247.686 423.811 246.89 423.755C184.072 419.237 108.824 407.731 65.0043 357.094C16.3377 295.482 12.8977 181.712 1.06783 39.9707C0.927578 37.615 0.779528 35.26 0.629854 32.905C-0.031455 22.0339 -0.0535919 11.1861 0.0408357 0.297067Z" fill="white"/>
<path d="M874.419 404.816C875.134 405.458 875.849 406.1 876.585 406.762C889.886 419.376 897.064 437.088 898 455.367C898.021 475.766 890.947 493.732 876.8 508.454C863.417 521.264 846.751 527.967 828.396 527.861C827.562 527.86 826.728 527.859 825.869 527.858C819.752 527.774 814.124 527.014 808.2 525.515C797.474 523.285 788.092 528.068 779.207 533.768C775.195 536.775 771.498 540.038 767.851 543.483C767.279 544.023 766.707 544.562 766.118 545.118C755.237 555.499 742.193 568.384 740.572 584.316C740.408 590.224 741.74 594.527 744.048 599.9C754.71 626.766 754.227 655.623 743.106 682.194C739.827 690.242 739.683 696.268 742.41 704.562C751.12 725.233 770.75 743.382 790.562 752.864C798.113 755.82 805.865 755.286 813.577 753.268C831.744 749.669 851.013 753.193 866.557 763.407C869.605 765.62 872.471 767.974 875.292 770.473C876.194 771.259 876.194 771.259 877.114 772.06C889.274 783.432 896.693 800.832 897.423 817.485C897.734 836.117 893.649 853.171 881.407 867.628C880.993 868.182 880.58 868.735 880.154 869.305C869.982 882.284 852.887 890.481 836.858 892.359C816.529 893.533 797.442 889.236 781.729 875.344C767.992 862.695 759.732 845.795 758.352 827C758.037 819.623 758.518 812.084 760.467 804.933C762.489 795.839 760.819 787.368 756.496 779.306C756.072 778.51 755.649 777.714 755.213 776.894C751.932 771.259 747.876 766.597 743.393 761.929C741.337 759.778 739.974 758.337 739.026 755.458C737.875 754.842 736.708 754.255 735.532 753.692C734.252 752.446 734.252 752.446 732.966 750.987C724.851 742.554 713.067 734.422 701.192 733.874C695.379 733.91 690.789 735.862 685.571 738.153C673.545 743.397 661.005 745.195 648.017 745.136C646.897 745.131 645.777 745.127 644.624 745.122C629.965 744.939 616.821 741.781 603.414 735.751C596.821 733.067 590.981 733.492 584.415 736.083C574.554 740.695 566.813 746.999 559.084 754.575C558.631 755.01 558.179 755.444 557.713 755.892C547.118 766.074 535.762 779.081 533.752 794.32C533.824 797.965 534.254 801.484 535.046 805.042C539.34 824.691 536.291 844.342 525.89 861.446C514.845 877.584 498.944 887.928 480.019 892.008C460.945 895.088 442.242 890.971 426.359 879.98C424.216 878.297 422.197 876.546 420.196 874.694C419.601 874.173 419.005 873.651 418.391 873.114C410.254 865.546 404.492 855.18 400.979 844.665C400.701 843.85 400.423 843.036 400.137 842.198C394.908 823.756 397.958 803.603 406.923 786.982C415.802 771.413 430.961 759.319 448.149 754.575C454.496 752.978 460.563 752.499 467.093 752.533C468.469 752.533 468.469 752.533 469.874 752.534C476.281 752.61 481.995 753.445 488.234 754.91C497.295 756.74 506.47 753.175 514.085 748.275C530.349 737.189 550.586 719.108 554.716 698.932C555.362 691.966 554.191 686.777 551.44 680.439C541.073 654.444 541.336 626.136 551.222 600.01C551.882 598.623 552.554 597.242 553.242 595.87C556.057 589.677 555.435 582.962 553.406 576.604C549.852 567.877 544.198 560.73 537.764 554.011C535.812 551.96 534.657 550.644 533.752 547.899C532.602 547.283 531.435 546.696 530.258 546.133C528.917 544.856 528.917 544.856 527.583 543.373C518.966 534.475 506.937 526.514 494.513 524.935C491.494 524.935 488.921 525.457 485.982 526.15C466.211 530.736 446.173 527.705 428.932 516.986C412.787 505.689 402.28 489.263 398.688 469.83C395.929 450.536 400.137 431.65 411.516 415.857C412.36 414.817 413.215 413.786 414.082 412.765C414.515 412.202 414.949 411.638 415.396 411.057C425.617 398.282 441.735 390.091 457.757 388.035C478.053 386.76 496.869 390.156 512.648 403.954C513.271 404.53 513.893 405.106 514.535 405.699C515.131 406.221 515.726 406.742 516.34 407.28C529.386 419.413 536.145 437.433 537.188 455.019C537.445 461.824 536.814 468.885 535.021 475.461C532.501 486.797 536.001 496.201 541.668 505.836C548.832 516.773 558.02 526.872 568.419 534.706C569.024 535.163 569.628 535.62 570.251 536.091C579.356 542.826 588.572 547.835 600.138 546.133C602.99 545.186 605.733 544.014 608.491 542.821C634.3 531.82 663.084 532.631 688.956 543.159C690.704 543.887 692.447 544.626 694.18 545.388C701.291 547.981 708.828 545.607 715.441 542.6C735.257 531.41 754.435 511.947 761.157 489.762C762.242 484.513 761.701 480.126 760.426 474.978C756.22 455.605 759.21 435.761 769.598 418.948C772.022 415.5 774.628 412.342 777.46 409.232C778.166 408.397 778.166 408.397 778.886 407.545C789.902 395.259 807.728 388.305 823.786 387.21C842.226 386.793 860.591 392.072 874.419 404.816Z" fill="white"/>
<path d="M271.552 462.053C274.765 462.063 277.978 462.063 281.19 462.062C284.322 462.062 287.454 462.067 290.586 462.074C292.063 462.076 293.539 462.078 295.016 462.079C302.714 462.086 310.341 462.184 317.996 463.109C313.062 469.123 307.801 474.746 301.911 479.815C296.886 484.254 292.213 489.052 287.502 493.826C286.509 494.83 285.515 495.834 284.521 496.838C282.449 498.932 280.378 501.028 278.308 503.124C275.672 505.795 273.032 508.461 270.391 511.127C268.341 513.196 266.293 515.268 264.246 517.34C263.274 518.323 262.302 519.306 261.328 520.288C256.593 525.068 251.904 529.849 247.569 535.01C245.819 537.062 243.921 538.944 242.002 540.834C238.92 543.916 235.997 547.057 233.181 550.387C231.513 552.323 229.798 554.209 228.071 556.09C223.173 561.43 218.526 566.919 214.049 572.63C213.69 573.082 213.331 573.534 212.961 573.999C203.057 586.307 203.057 586.307 197.453 600.893C200.04 598.991 202.187 596.993 204.222 594.521C208.942 589.009 214.105 583.925 219.208 578.78C220.979 576.995 222.744 575.205 224.509 573.415C229.898 567.963 235.271 562.558 241.128 557.615C242.011 556.841 242.892 556.066 243.772 555.29C276.959 526.553 314.419 503.213 353.701 484.031C354.73 483.528 355.759 483.024 356.819 482.506C364.067 479.007 364.067 479.007 366.039 479.007C385.112 524.906 390.74 576.918 372.154 623.857C365.536 640.081 356.309 653.833 345.075 667.135C344.405 667.939 343.735 668.743 343.045 669.571C339.368 673.881 335.432 677.642 331.099 681.267C330.465 681.829 329.831 682.392 329.178 682.971C290.185 716.468 220.535 717.878 171.706 720.876C169.536 721.01 167.365 721.151 165.195 721.292C124.494 723.867 83.5992 722.946 42.8425 722.779C42.199 719.273 41.853 715.944 41.8283 712.381C41.82 711.393 41.8118 710.405 41.8033 709.387C41.7994 708.325 41.7956 707.264 41.7916 706.17C41.7855 705.058 41.7793 703.945 41.773 702.799C41.7577 699.192 41.7517 695.584 41.7507 691.976C41.7503 691.364 41.7499 690.752 41.7495 690.121C41.7434 671.738 41.9358 653.565 44.5896 635.339C44.7395 634.287 44.8894 633.234 45.0438 632.15C46.148 624.633 47.4782 617.176 48.9571 609.725C49.2672 608.153 49.2672 608.153 49.5836 606.548C54.6804 581.346 62.3984 556.113 73.4152 532.884C73.878 531.908 74.3408 530.931 74.8176 529.924C77.7545 524.144 81.4852 519.269 85.6443 514.337C86.1318 513.705 86.6194 513.073 87.1217 512.422C112.832 480.493 161.772 470.617 199.691 465.538C200.679 465.405 201.667 465.271 202.685 465.134C206.178 464.699 209.673 464.33 213.176 463.993C213.966 463.915 214.756 463.837 215.57 463.757C234.229 461.995 252.83 461.982 271.552 462.053Z" fill="white"/>
<path d="M692.73 169.877C692.921 178.988 692.353 188.012 691.692 197.092C691.607 198.268 691.607 198.268 691.521 199.468C687.732 250.903 682.493 319.347 641.193 355.355C630.441 363.331 619.493 366.954 606.304 367.017C605.445 367.023 604.586 367.029 603.701 367.035C600.894 367.051 598.087 367.056 595.279 367.058C593.842 367.059 593.842 367.059 592.376 367.061C523.543 367.018 523.543 367.018 503.179 353.589C507.678 345.885 512.957 339.052 518.549 332.144C520.195 330.106 521.815 328.048 523.434 325.988C523.984 325.295 524.535 324.601 525.102 323.887C526.243 322.449 527.378 321.007 528.508 319.56C532.892 314.021 537.543 308.815 542.368 303.667C544.915 300.947 547.408 298.202 549.826 295.365C553.169 291.476 556.728 287.832 560.339 284.2C560.961 283.568 561.583 282.935 562.224 282.284C566.274 278.197 570.452 274.317 574.807 270.565C553.369 281.18 533.607 297.512 515.408 312.96C514.949 313.345 514.489 313.731 514.015 314.127C501.498 324.625 487.661 336.38 479.86 351.081C477.848 353.589 477.848 353.589 474.965 354.191C473.849 354.163 472.733 354.135 471.583 354.106C470.987 354.099 470.391 354.091 469.777 354.084C467.88 354.054 465.986 353.988 464.09 353.92C462.801 353.893 461.513 353.869 460.224 353.848C457.071 353.789 453.92 353.698 450.769 353.589C449.847 237.766 449.847 237.766 478.776 207.304C488.44 198.211 498.935 195.949 511.641 193.614C512.344 193.484 513.046 193.354 513.77 193.22C549.659 186.635 585.895 182.06 622.085 177.55C622.823 177.458 623.561 177.366 624.321 177.271C640.03 175.314 655.745 173.414 671.473 171.623C672.848 171.466 674.224 171.308 675.6 171.15C677.497 170.932 679.394 170.717 681.292 170.504C682.366 170.383 683.44 170.261 684.546 170.136C687.293 169.894 689.974 169.829 692.73 169.877Z" fill="white"/>
<path d="M675.642 422.288C684.33 429.53 689.376 439.358 691.638 450.413C692.665 464.429 689.729 476.781 680.719 487.785C671.998 496.925 660.418 501.759 647.963 502.137C636.319 501.899 625 497.82 616.503 489.541C607.405 479.326 603.379 468.02 603.632 454.277C604.454 443.179 608.993 433.025 616.735 425.13C634.177 410.073 656.804 408.368 675.642 422.288Z" fill="white"/>
<path d="M678.044 789.904C687.072 798.568 691.758 810.164 692.129 822.694C692.07 824.131 691.979 825.567 691.856 827C691.765 828.124 691.765 828.124 691.672 829.27C690.232 840.367 684.36 850.627 675.952 857.789C665.72 865.612 654.254 868.718 641.507 867.266C629.336 865.003 619.042 859.514 611.852 849.239C604.696 838.054 602.27 826.055 604.506 812.868C607.183 802.61 612.988 792.256 621.976 786.371C640.934 775.444 660.611 775.426 678.044 789.904Z" fill="white"/>
<path d="M494.513 604.795C503.587 612.618 509.074 621.623 511.041 633.573C512.05 647.763 508.689 659.867 499.522 670.834C491.049 679.967 479.93 684.156 467.748 685.021C454.133 684.78 443.512 679.474 434.172 669.785C424.694 659.383 423.151 647.256 423.575 633.772C423.805 629.843 424.702 626.537 426.311 622.974C426.652 622.191 426.993 621.407 427.345 620.6C432.673 609.612 441.774 601.58 453.171 597.526C467.409 593.269 482.724 595.432 494.513 604.795Z" fill="white"/>
<path d="M857.112 605.42C864.875 612.663 871.241 622.727 871.907 633.586C872.469 650.132 872.469 650.132 869.178 657.42C868.837 658.203 868.495 658.987 868.144 659.794C863.593 669.178 856.032 677.101 846.467 681.267C833.945 685.586 822.283 686.221 809.786 681.074C797.772 674.88 790.881 665.821 785.987 653.376C782.485 642.12 784.201 630 788.87 619.386C794.991 607.878 804.392 601.362 816.293 597.15C830.798 592.757 844.854 597.156 857.112 605.42Z" fill="white"/>
</g>
</svg>
