<svg width="1259" height="1259" viewBox="0 0 1259 1259" fill="none" xmlns="http://www.w3.org/2000/svg">
<path d="M1254.64 634.898L634.898 1254.64C631.711 1257.83 626.545 1257.83 623.358 1254.64L3.61412 634.898C0.427454 631.711 0.427454 626.546 3.61412 623.359L623.358 3.61401C626.545 0.42734 631.711 0.42734 634.898 3.61401L1254.64 623.359C1257.83 626.546 1257.83 631.711 1254.64 634.898Z" stroke="#1BB700" stroke-width="2.448" stroke-miterlimit="10"/>
<path d="M1207.45 634.898L634.897 1207.45C631.712 1210.64 626.545 1210.64 623.358 1207.45L50.8036 634.898C47.6169 631.711 47.6169 626.546 50.8036 623.359L623.358 50.8033C626.545 47.6166 631.712 47.6166 634.897 50.8033L1207.45 623.359C1210.64 626.546 1210.64 631.711 1207.45 634.898Z" stroke="#18B419" stroke-width="2.448" stroke-miterlimit="10"/>
<path d="M1160.26 634.898L634.897 1160.27C631.71 1163.45 626.545 1163.45 623.358 1160.27L97.9918 634.898C94.8051 631.712 94.8051 626.546 97.9918 623.36L623.358 97.9931C626.545 94.8064 631.71 94.8064 634.897 97.9931L1160.26 623.36C1163.45 626.546 1163.45 631.712 1160.26 634.898Z" stroke="#16B232" stroke-width="2.448" stroke-miterlimit="10"/>
<path d="M1113.07 634.898L634.897 1113.08C631.711 1116.26 626.545 1116.26 623.359 1113.08L145.181 634.898C141.995 631.712 141.995 626.546 145.181 623.36L623.359 145.182C626.545 141.996 631.711 141.996 634.897 145.182L1113.07 623.36C1116.26 626.546 1116.26 631.712 1113.07 634.898Z" stroke="#13AF4B" stroke-width="2.448" stroke-miterlimit="10"/>
<path d="M1065.89 634.898L634.898 1065.89C631.711 1069.07 626.546 1069.07 623.359 1065.89L192.371 634.898C189.184 631.711 189.184 626.546 192.371 623.359L623.359 192.371C626.546 189.185 631.711 189.185 634.898 192.371L1065.89 623.359C1069.07 626.546 1069.07 631.711 1065.89 634.898Z" stroke="#11AC64" stroke-width="2.448" stroke-miterlimit="10"/>
<path d="M1018.7 634.898L634.898 1018.7C631.711 1021.88 626.544 1021.88 623.359 1018.7L239.559 634.898C236.374 631.711 236.374 626.546 239.559 623.359L623.359 239.561C626.544 236.374 631.711 236.374 634.898 239.561L1018.7 623.359C1021.88 626.546 1021.88 631.711 1018.7 634.898Z" stroke="#0EAA7E" stroke-width="2.448" stroke-miterlimit="10"/>
<path d="M971.507 634.898L634.898 971.507C631.711 974.694 626.545 974.694 623.358 971.507L286.749 634.898C283.562 631.711 283.562 626.546 286.749 623.359L623.358 286.749C626.545 283.563 631.711 283.563 634.898 286.749L971.507 623.359C974.694 626.546 974.694 631.711 971.507 634.898Z" stroke="#0CA797" stroke-width="2.448" stroke-miterlimit="10"/>
<path d="M924.318 634.898L634.897 924.318C631.711 927.505 626.545 927.505 623.358 924.318L333.938 634.898C330.751 631.712 330.751 626.546 333.938 623.36L623.358 333.938C626.545 330.753 631.711 330.753 634.897 333.938L924.318 623.36C927.505 626.546 927.505 631.712 924.318 634.898Z" stroke="#09A4B0" stroke-width="2.448" stroke-miterlimit="10"/>
<path d="M877.129 634.898L634.897 877.13C631.712 880.316 626.545 880.316 623.358 877.13L381.128 634.898C377.941 631.712 377.941 626.546 381.128 623.36L623.358 381.128C626.545 377.941 631.712 377.941 634.897 381.128L877.129 623.36C880.316 626.546 880.316 631.712 877.129 634.898Z" stroke="#07A2C9" stroke-width="2.448" stroke-miterlimit="10"/>
<path d="M829.94 634.898L634.897 829.941C631.71 833.127 626.545 833.127 623.358 829.941L428.316 634.898C425.129 631.711 425.129 626.546 428.316 623.359L623.358 428.317C626.545 425.13 631.71 425.13 634.897 428.317L829.94 623.359C833.126 626.546 833.126 631.711 829.94 634.898Z" stroke="#049FE2" stroke-width="2.448" stroke-miterlimit="10"/>
</svg>
